<svg width="16" height="18" viewBox="0 0 16 18" fill="none" xmlns="http://www.w3.org/2000/svg">
<path id="Vector" d="M7.86517 6.62373C7.31038 6.62373 6.79085 6.83896 6.39749 7.23232C6.00599 7.62568 5.7889 8.14521 5.7889 8.7C5.7889 9.25478 6.00599 9.77431 6.39749 10.1677C6.79085 10.5592 7.31038 10.7763 7.86517 10.7763C8.41995 10.7763 8.93948 10.5592 9.33284 10.1677C9.72435 9.77431 9.94144 9.25478 9.94144 8.7C9.94144 8.14521 9.72435 7.62568 9.33284 7.23232C9.14071 7.03872 8.91203 6.88522 8.66008 6.78074C8.40812 6.67627 8.13792 6.6229 7.86517 6.62373ZM15.5153 10.9934L14.3018 9.95615C14.3593 9.60361 14.389 9.24365 14.389 8.88555C14.389 8.52744 14.3593 8.16562 14.3018 7.81494L15.5153 6.77773C15.6069 6.69926 15.6725 6.59474 15.7034 6.47807C15.7342 6.36141 15.7288 6.23812 15.6878 6.12461L15.6711 6.07637C15.3372 5.14249 14.8368 4.27685 14.1942 3.52139L14.1608 3.48242C14.0827 3.39067 13.9787 3.32472 13.8625 3.29325C13.7462 3.26179 13.6232 3.26628 13.5095 3.30615L12.0029 3.84238C11.4462 3.38594 10.8265 3.02598 10.1548 2.77549L9.86351 1.2002C9.84153 1.08152 9.78396 0.972348 9.69846 0.887174C9.61295 0.801999 9.50355 0.744857 9.3848 0.72334L9.3347 0.714062C8.36985 0.539648 7.35306 0.539648 6.38821 0.714062L6.33812 0.72334C6.21936 0.744857 6.10996 0.801999 6.02446 0.887174C5.93895 0.972348 5.88138 1.08152 5.85941 1.2002L5.56624 2.78291C4.90092 3.03539 4.28113 3.39448 3.73118 3.84609L2.21341 3.30615C2.09979 3.26597 1.97663 3.26131 1.8603 3.29279C1.74397 3.32428 1.63998 3.39042 1.56214 3.48242L1.52874 3.52139C0.887292 4.27766 0.387018 5.14308 0.0517882 6.07637L0.0350889 6.12461C-0.0484072 6.35654 0.0202452 6.61631 0.207648 6.77773L1.43597 7.82607C1.37845 8.1749 1.35062 8.53115 1.35062 8.88369C1.35062 9.23994 1.37845 9.59619 1.43597 9.94131L0.211358 10.9896C0.11969 11.0681 0.0540823 11.1726 0.0232584 11.2893C-0.00756553 11.406 -0.00214485 11.5293 0.0387998 11.6428L0.0554991 11.691C0.391339 12.6243 0.886749 13.4871 1.53245 14.246L1.56585 14.285C1.64388 14.3767 1.74788 14.4427 1.86414 14.4741C1.9804 14.5056 2.10347 14.5011 2.21712 14.4612L3.73489 13.9213C4.28782 14.3759 4.90384 14.7358 5.56995 14.9845L5.86312 16.5672C5.88509 16.6859 5.94266 16.795 6.02817 16.8802C6.11367 16.9654 6.22307 17.0225 6.34183 17.044L6.39192 17.0533C7.36626 17.2287 8.36407 17.2287 9.33841 17.0533L9.38851 17.044C9.50726 17.0225 9.61666 16.9654 9.70217 16.8802C9.78767 16.795 9.84524 16.6859 9.86722 16.5672L10.1585 14.9919C10.8302 14.7395 11.4499 14.3814 12.0066 13.925L13.5132 14.4612C13.6268 14.5014 13.75 14.5061 13.8663 14.4746C13.9826 14.4431 14.0866 14.377 14.1645 14.285L14.1979 14.246C14.8436 13.4834 15.339 12.6243 15.6748 11.691L15.6915 11.6428C15.7713 11.4127 15.7027 11.1548 15.5153 10.9934ZM7.86517 11.9619C6.06351 11.9619 4.60325 10.5017 4.60325 8.7C4.60325 6.89834 6.06351 5.43809 7.86517 5.43809C9.66683 5.43809 11.1271 6.89834 11.1271 8.7C11.1271 10.5017 9.66683 11.9619 7.86517 11.9619Z" fill="#53525C"/>
</svg>
