<svg width="17" height="15" viewBox="0 0 17 15" fill="none" xmlns="http://www.w3.org/2000/svg">
<path id="Vector" d="M10.0938 5.08337V3.89587H9.5C9.18506 3.89587 8.88301 4.02099 8.66031 4.24369C8.43761 4.46638 8.3125 4.76843 8.3125 5.08337V9.83337C8.3125 10.1483 8.43761 10.4504 8.66031 10.6731C8.88301 10.8958 9.18506 11.0209 9.5 11.0209H10.0938V9.83337C10.0938 9.51843 10.2189 9.21638 10.4416 8.99368C10.6643 8.77099 10.9663 8.64587 11.2812 8.64587H14.8438C15.1587 8.64587 15.4607 8.77099 15.6834 8.99368C15.9061 9.21638 16.0312 9.51843 16.0312 9.83337V13.3959C16.0312 13.7108 15.9061 14.0129 15.6834 14.2356C15.4607 14.4583 15.1587 14.5834 14.8438 14.5834H11.2812C10.9663 14.5834 10.6643 14.4583 10.4416 14.2356C10.2189 14.0129 10.0938 13.7108 10.0938 13.3959V12.2084H9.5C8.87011 12.2084 8.26602 11.9582 7.82062 11.5128C7.37522 11.0674 7.125 10.4633 7.125 9.83337V8.05212H4.75V8.64587C4.75 8.96082 4.62489 9.26286 4.40219 9.48556C4.17949 9.70826 3.87744 9.83337 3.5625 9.83337H1.1875C0.872555 9.83337 0.57051 9.70826 0.347811 9.48556C0.125111 9.26286 0 8.96082 0 8.64587V6.27087C0 5.95593 0.125111 5.65388 0.347811 5.43118C0.57051 5.20849 0.872555 5.08337 1.1875 5.08337H3.5625C3.87744 5.08337 4.17949 5.20849 4.40219 5.43118C4.62489 5.65388 4.75 5.95593 4.75 6.27087V6.86462H7.125V5.08337C7.125 4.45349 7.37522 3.84939 7.82062 3.404C8.26602 2.9586 8.87011 2.70837 9.5 2.70837H10.0938V1.52087C10.0938 1.20593 10.2189 0.903884 10.4416 0.681185C10.6643 0.458485 10.9663 0.333374 11.2812 0.333374H14.8438C15.1587 0.333374 15.4607 0.458485 15.6834 0.681185C15.9061 0.903884 16.0312 1.20593 16.0312 1.52087V5.08337C16.0312 5.39832 15.9061 5.70036 15.6834 5.92306C15.4607 6.14576 15.1587 6.27087 14.8438 6.27087H11.2812C10.9663 6.27087 10.6643 6.14576 10.4416 5.92306C10.2189 5.70036 10.0938 5.39832 10.0938 5.08337Z" fill="#53525C"/>
</svg>
