<svg width="15" height="14" viewBox="0 0 15 14" fill="none" xmlns="http://www.w3.org/2000/svg">
<path id="Vector" fill-rule="evenodd" clip-rule="evenodd" d="M1.41667 0.583374H9.91667C9.91667 0.793337 9.99129 0.9947 10.1241 1.14317C10.257 1.29163 10.4371 1.37504 10.625 1.37504C10.8129 1.37504 10.993 1.29163 11.1259 1.14317C11.2587 0.9947 11.3333 0.793337 11.3333 0.583374H12.75C13.1257 0.583374 13.4861 0.750189 13.7517 1.04712C14.0174 1.34405 14.1667 1.74678 14.1667 2.16671V11.6667C14.1667 12.0866 14.0174 12.4894 13.7517 12.7863C13.4861 13.0832 13.1257 13.25 12.75 13.25H11.3333C11.3333 13.0401 11.2587 12.8387 11.1259 12.6902C10.993 12.5418 10.8129 12.4584 10.625 12.4584C10.4371 12.4584 10.257 12.5418 10.1241 12.6902C9.99129 12.8387 9.91667 13.0401 9.91667 13.25H1.41667C1.04094 13.25 0.680609 13.0832 0.414932 12.7863C0.149255 12.4894 0 12.0866 0 11.6667V2.16671C0 1.74678 0.149255 1.34405 0.414932 1.04712C0.680609 0.750189 1.04094 0.583374 1.41667 0.583374ZM11.3333 3.75083C11.3333 3.9608 11.2587 4.16216 11.1259 4.31063C10.993 4.45909 10.8129 4.5425 10.625 4.5425C10.4371 4.5425 10.257 4.45909 10.1241 4.31063C9.99129 4.16216 9.91667 3.9608 9.91667 3.75083V3.75004C9.91667 3.54008 9.99129 3.33871 10.1241 3.19025C10.257 3.04178 10.4371 2.95837 10.625 2.95837C10.8129 2.95837 10.993 3.04178 11.1259 3.19025C11.2587 3.33871 11.3333 3.54008 11.3333 3.75004V3.75083ZM10.625 7.70917C10.8129 7.70917 10.993 7.62576 11.1259 7.47729C11.2587 7.32883 11.3333 7.12746 11.3333 6.9175V6.91671C11.3333 6.70674 11.2587 6.50538 11.1259 6.35691C10.993 6.20845 10.8129 6.12504 10.625 6.12504C10.4371 6.12504 10.257 6.20845 10.1241 6.35691C9.99129 6.50538 9.91667 6.70674 9.91667 6.91671V6.9175C9.91667 7.12746 9.99129 7.32883 10.1241 7.47729C10.257 7.62576 10.4371 7.70917 10.625 7.70917ZM11.3333 10.0842C11.3333 10.2941 11.2587 10.4955 11.1259 10.644C10.993 10.7924 10.8129 10.8758 10.625 10.8758C10.4371 10.8758 10.257 10.7924 10.1241 10.644C9.99129 10.4955 9.91667 10.2941 9.91667 10.0842C9.91667 9.8742 9.99129 9.67205 10.1241 9.52358C10.257 9.37512 10.4371 9.29171 10.625 9.29171C10.8129 9.29171 10.993 9.37512 11.1259 9.52358C11.2587 9.67205 11.3333 9.8742 11.3333 10.0842Z" fill="#53525C"/>
</svg>
