<svg width="15" height="15" viewBox="0 0 15 15" fill="none" xmlns="http://www.w3.org/2000/svg">
<path id="Vector" d="M0.791667 7.91667H5.54167C5.97708 7.91667 6.33333 7.56042 6.33333 7.125V0.791667C6.33333 0.35625 5.97708 0 5.54167 0H0.791667C0.35625 0 0 0.35625 0 0.791667V7.125C0 7.56042 0.35625 7.91667 0.791667 7.91667ZM0.791667 14.25H5.54167C5.97708 14.25 6.33333 13.8938 6.33333 13.4583V10.2917C6.33333 9.85625 5.97708 9.5 5.54167 9.5H0.791667C0.35625 9.5 0 9.85625 0 10.2917V13.4583C0 13.8938 0.35625 14.25 0.791667 14.25ZM8.70833 14.25H13.4583C13.8938 14.25 14.25 13.8938 14.25 13.4583V7.125C14.25 6.68958 13.8938 6.33333 13.4583 6.33333H8.70833C8.27292 6.33333 7.91667 6.68958 7.91667 7.125V13.4583C7.91667 13.8938 8.27292 14.25 8.70833 14.25ZM7.91667 0.791667V3.95833C7.91667 4.39375 8.27292 4.75 8.70833 4.75H13.4583C13.8938 4.75 14.25 4.39375 14.25 3.95833V0.791667C14.25 0.35625 13.8938 0 13.4583 0H8.70833C8.27292 0 7.91667 0.35625 7.91667 0.791667Z" fill="#0B1875"/>
</svg>
