<svg width="185" height="28" viewBox="0 0 185 28" fill="none" xmlns="http://www.w3.org/2000/svg">
<path d="M16.173 22H11.9956V15.3687H5.43283V22H1.24407V5.5303H5.43283V11.9903H11.9956V5.5303H16.173V22ZM23.3292 19.3977C23.9608 19.3977 24.501 19.2227 24.9499 18.8727C25.4065 18.5227 25.6348 18.0776 25.6348 17.5373V16.6813L23.3749 16.8297C22.8499 16.8677 22.4428 17.0047 22.1536 17.2406C21.8645 17.4688 21.7199 17.7656 21.7199 18.1308C21.7199 18.5189 21.8645 18.827 22.1536 19.0553C22.4504 19.2836 22.8423 19.3977 23.3292 19.3977ZM21.8911 22.1826C20.7193 22.1826 19.7302 21.8288 18.9236 21.1212C18.1171 20.4135 17.7138 19.508 17.7138 18.4047C17.7138 17.2482 18.1437 16.3465 19.0035 15.6997C19.8633 15.053 21.1036 14.6801 22.7243 14.5812L25.6348 14.41V13.7024C25.6348 13.2154 25.475 12.8388 25.1554 12.5724C24.8358 12.2985 24.4059 12.1615 23.8657 12.1615C23.333 12.1615 22.8955 12.2871 22.5531 12.5382C22.2183 12.7817 22.0205 13.1013 21.9596 13.4969H18.3187C18.3796 12.211 18.9236 11.1876 19.9508 10.4267C20.978 9.65818 22.3515 9.27393 24.0711 9.27393C25.7299 9.27393 27.0653 9.66199 28.0772 10.4381C29.0892 11.2066 29.5952 12.2186 29.5952 13.4741V22H25.6576V20.2309H25.5777C25.2505 20.8396 24.7483 21.319 24.0711 21.669C23.3939 22.0114 22.6672 22.1826 21.8911 22.1826ZM31.5355 22V9.57068H35.4732V11.9675H35.5531C35.7966 11.161 36.2379 10.5218 36.8771 10.05C37.5162 9.57068 38.2581 9.331 39.1027 9.331C40.031 9.331 40.7957 9.56307 41.3968 10.0272C41.9979 10.4838 42.386 11.1343 42.561 11.9789H42.6409C42.8844 11.18 43.3523 10.5408 44.0448 10.0615C44.7448 9.57449 45.5551 9.331 46.4758 9.331C47.6933 9.331 48.6786 9.72286 49.4319 10.5066C50.1852 11.2827 50.5619 12.3023 50.5619 13.5654V22H46.5101V14.5926C46.5101 13.2763 45.928 12.6181 44.7638 12.6181C44.216 12.6181 43.7822 12.8007 43.4627 13.1659C43.1431 13.5312 42.9833 14.0181 42.9833 14.6269V22H39.1141V14.547C39.1141 13.923 38.9657 13.4475 38.669 13.1203C38.3722 12.7855 37.9461 12.6181 37.3907 12.6181C36.8428 12.6181 36.4053 12.8045 36.0781 13.1774C35.7509 13.5502 35.5873 14.041 35.5873 14.6497V22H31.5355ZM52.4679 22V9.57068H56.4056V11.9219H56.4855C56.942 10.2327 57.916 9.38806 59.4074 9.38806C59.8106 9.38806 60.153 9.44133 60.4346 9.54785V12.9947C60.0541 12.8426 59.6242 12.7665 59.1448 12.7665C58.2926 12.7665 57.6421 12.9985 57.1931 13.4627C56.7442 13.9268 56.5197 14.5926 56.5197 15.4601V22H52.4679ZM71.985 20.5847C70.8513 21.7261 69.2991 22.2968 67.3283 22.2968C65.3576 22.2968 63.8054 21.7261 62.6716 20.5847C61.5379 19.4358 60.971 17.8341 60.971 15.7796C60.971 13.7632 61.5455 12.1768 62.6944 11.0202C63.8434 9.85602 65.388 9.27393 67.3283 9.27393C69.2838 9.27393 70.8323 9.85221 71.9736 11.0088C73.115 12.1654 73.6857 13.7556 73.6857 15.7796C73.6857 17.8417 73.1188 19.4434 71.985 20.5847ZM65.6734 18.4047C66.0767 19.0211 66.6283 19.3292 67.3283 19.3292C68.0284 19.3292 68.58 19.0211 68.9833 18.4047C69.3866 17.7884 69.5882 16.9172 69.5882 15.791C69.5882 14.6801 69.3828 13.8127 68.9719 13.1888C68.5686 12.5572 68.0208 12.2414 67.3283 12.2414C66.6359 12.2414 66.0881 12.5572 65.6848 13.1888C65.2815 13.8127 65.0799 14.6801 65.0799 15.791C65.0799 16.9172 65.2777 17.7884 65.6734 18.4047ZM83.3871 22H75.5232V5.5303H83.1817C84.8024 5.5303 86.0731 5.89553 86.9938 6.62599C87.9145 7.35646 88.3749 8.36085 88.3749 9.63916C88.3749 10.5522 88.0667 11.3436 87.4504 12.0132C86.8416 12.6828 86.0769 13.0822 85.1562 13.2116V13.3029C86.2824 13.3562 87.2259 13.7556 87.9868 14.5013C88.7553 15.247 89.1396 16.1639 89.1396 17.252C89.1396 18.6977 88.6183 19.8505 87.5759 20.7103C86.5411 21.5701 85.1448 22 83.3871 22ZM79.712 8.49781V12.2414H81.8691C82.63 12.2414 83.2236 12.074 83.6497 11.7392C84.0834 11.3968 84.3002 10.9289 84.3002 10.3354C84.3002 9.7571 84.1024 9.30817 83.7067 8.98859C83.3187 8.6614 82.7746 8.49781 82.0746 8.49781H79.712ZM79.712 19.0325H82.2001C83.0676 19.0325 83.7296 18.8499 84.1861 18.4846C84.6502 18.1118 84.8823 17.5792 84.8823 16.8867C84.8823 16.2172 84.6464 15.6997 84.1747 15.3345C83.7029 14.9693 83.0371 14.7867 82.1773 14.7867H79.712V19.0325ZM102.756 9.57068V22H98.8296V19.6488H98.7497C98.1562 21.3761 96.9502 22.2397 95.1317 22.2397C93.7773 22.2397 92.6777 21.8212 91.8331 20.9842C90.9962 20.1472 90.5777 19.0059 90.5777 17.5601V9.57068H94.6295V16.6813C94.6295 17.4118 94.8083 17.971 95.1659 18.3591C95.5235 18.7471 96.0219 18.9412 96.6611 18.9412C97.285 18.9412 97.7834 18.7281 98.1562 18.302C98.5291 17.8759 98.7155 17.309 98.7155 16.6014V9.57068H102.756ZM104.514 13.3371C104.514 12.0893 105.008 11.1001 105.997 10.3696C106.994 9.63916 108.349 9.27393 110.061 9.27393C111.75 9.27393 113.089 9.65058 114.078 10.4039C115.067 11.1496 115.569 12.1654 115.585 13.4513H111.887C111.871 13.0023 111.696 12.6485 111.362 12.3898C111.027 12.1311 110.582 12.0018 110.026 12.0018C109.532 12.0018 109.136 12.1007 108.839 12.2985C108.543 12.4963 108.394 12.7551 108.394 13.0746C108.394 13.5768 108.858 13.923 109.787 14.1133L112.389 14.6383C113.629 14.9046 114.527 15.3079 115.082 15.8481C115.646 16.3807 115.927 17.1188 115.927 18.0623C115.927 19.3483 115.394 20.3755 114.329 21.144C113.264 21.9125 111.86 22.2968 110.118 22.2968C108.329 22.2968 106.918 21.9201 105.883 21.1668C104.856 20.4135 104.301 19.3901 104.217 18.0966H108.143C108.204 18.5607 108.409 18.9222 108.759 19.1809C109.117 19.4396 109.593 19.5689 110.186 19.5689C110.726 19.5689 111.149 19.4776 111.453 19.295C111.765 19.1048 111.921 18.8461 111.921 18.5189C111.921 18.2678 111.818 18.0661 111.613 17.914C111.407 17.7542 111.061 17.6248 110.574 17.5259L108.223 17.0351C107.006 16.7764 106.081 16.3351 105.449 15.7112C104.826 15.0796 104.514 14.2883 104.514 13.3371Z" fill="white"/>
<path d="M125.64 22H121.463V8.9087H116.92V5.5303H130.183V8.9087H125.64V22ZM131.233 22V9.57068H135.273V22H131.233ZM134.725 7.99562C134.329 8.37607 133.839 8.56629 133.253 8.56629C132.667 8.56629 132.172 8.37607 131.769 7.99562C131.373 7.61516 131.176 7.14341 131.176 6.58034C131.176 6.02488 131.373 5.55693 131.769 5.17648C132.172 4.79603 132.667 4.6058 133.253 4.6058C133.839 4.6058 134.329 4.79603 134.725 5.17648C135.121 5.54932 135.319 6.01727 135.319 6.58034C135.319 7.14341 135.121 7.61516 134.725 7.99562ZM149.038 14.4785H145.317C145.248 13.8241 145.028 13.3067 144.655 12.9263C144.29 12.5458 143.814 12.3556 143.228 12.3556C142.513 12.3556 141.958 12.6523 141.562 13.2458C141.166 13.8393 140.968 14.6839 140.968 15.7796C140.968 16.8829 141.166 17.7351 141.562 18.3363C141.958 18.9298 142.513 19.2265 143.228 19.2265C143.822 19.2265 144.301 19.0477 144.666 18.6901C145.032 18.3248 145.252 17.8188 145.328 17.1721H149.038C148.984 18.7548 148.433 20.0064 147.383 20.9271C146.333 21.8402 144.933 22.2968 143.183 22.2968C141.227 22.2968 139.686 21.7185 138.56 20.5619C137.434 19.4053 136.871 17.8112 136.871 15.7796C136.871 13.7709 137.434 12.1844 138.56 11.0202C139.686 9.85602 141.219 9.27393 143.16 9.27393C144.902 9.27393 146.302 9.74949 147.36 10.7006C148.425 11.6517 148.984 12.911 149.038 14.4785ZM154.722 14.2959L158.294 9.57068H162.802L158.385 14.8894L163.065 22H158.408L155.384 17.309L154.653 18.1879V22H150.601V5.5303H154.653V14.2959H154.722ZM169.057 12.1501C168.441 12.1501 167.919 12.3594 167.493 12.7779C167.075 13.1888 166.839 13.7176 166.786 14.3644H171.305C171.267 13.7024 171.043 13.1697 170.632 12.7665C170.221 12.3556 169.696 12.1501 169.057 12.1501ZM171.397 18.0738H175.049C174.851 19.3597 174.22 20.3869 173.154 21.1554C172.089 21.9163 170.746 22.2968 169.125 22.2968C167.147 22.2968 165.599 21.7261 164.48 20.5847C163.362 19.4358 162.802 17.8569 162.802 15.8481C162.802 13.8393 163.358 12.2414 164.469 11.0544C165.587 9.86743 167.094 9.27393 168.989 9.27393C170.86 9.27393 172.348 9.8408 173.451 10.9745C174.562 12.1083 175.118 13.6263 175.118 15.5285V16.6699H166.729V16.921C166.729 17.6667 166.953 18.2716 167.402 18.7357C167.859 19.1999 168.452 19.432 169.183 19.432C169.723 19.432 170.191 19.3102 170.586 19.0667C170.982 18.8232 171.252 18.4922 171.397 18.0738ZM177.708 6.78578H181.76V9.57068H183.997V12.5496H181.76V17.7656C181.76 18.6254 182.236 19.0553 183.187 19.0553C183.522 19.0553 183.788 19.0363 183.986 18.9982V21.8745C183.507 21.9734 182.917 22.0228 182.217 22.0228C180.604 22.0228 179.447 21.7565 178.747 21.2239C178.055 20.6913 177.708 19.8124 177.708 18.5874V12.5496H176.019V9.57068H177.708V6.78578Z" fill="#8BA6FB"/>
</svg>
