<svg width="15" height="14" viewBox="0 0 15 14" fill="none" xmlns="http://www.w3.org/2000/svg">
<path id="Vector" d="M0 13.7042V1.46348C0 1.09931 0.122181 0.795312 0.366542 0.551478C0.610375 0.307117 0.914375 0.184937 1.27854 0.184937H12.9715C13.3356 0.184937 13.6396 0.307117 13.8835 0.551478C14.1278 0.795312 14.25 1.09931 14.25 1.46348V9.98973C14.25 10.3539 14.1281 10.6582 13.8843 10.9025C13.6399 11.1464 13.3356 11.2683 12.9715 11.2683H2.43596L0 13.7042ZM5.15929 8.63439L7.125 7.44214L9.09071 8.63439L8.56821 6.39794L10.3067 4.90564L8.02196 4.70377L7.125 2.60585L6.22804 4.70377L3.94329 4.90564L5.68179 6.39794L5.15929 8.63439Z" fill="#53525C"/>
</svg>
