<svg width="15" height="15" viewBox="0 0 15 15" fill="none" xmlns="http://www.w3.org/2000/svg">
<path id="Vector" d="M4.75 14.5C3.87917 14.5 3.13368 14.1899 2.51354 13.5698C1.8934 12.9497 1.58333 12.2042 1.58333 11.3333V4.86146C1.12153 4.68993 0.742057 4.40308 0.444918 4.00092C0.147779 3.59875 -0.000526374 3.14011 1.40366e-06 2.625C1.40366e-06 1.96528 0.230904 1.40451 0.69271 0.942708C1.15452 0.480903 1.71528 0.25 2.375 0.25C3.03472 0.25 3.59549 0.480903 4.05729 0.942708C4.5191 1.40451 4.75 1.96528 4.75 2.625C4.75 3.13958 4.60143 3.59822 4.30429 4.00092C4.00715 4.40361 3.62795 4.69046 3.16667 4.86146V11.3333C3.16667 11.7688 3.32183 12.1416 3.63217 12.452C3.9425 12.7623 4.31511 12.9172 4.75 12.9167C5.18542 12.9167 5.55829 12.7615 5.86863 12.4512C6.17896 12.1408 6.33386 11.7682 6.33333 11.3333V3.41667C6.33333 2.54583 6.6434 1.80035 7.26354 1.18021C7.88368 0.56007 8.62917 0.25 9.5 0.25C10.3708 0.25 11.1163 0.56007 11.7365 1.18021C12.3566 1.80035 12.6667 2.54583 12.6667 3.41667V9.88854C13.1285 10.0601 13.5079 10.3472 13.8051 10.7499C14.1022 11.1526 14.2505 11.6109 14.25 12.125C14.25 12.7847 14.0191 13.3455 13.5573 13.8073C13.0955 14.2691 12.5347 14.5 11.875 14.5C11.2153 14.5 10.6545 14.2691 10.1927 13.8073C9.7309 13.3455 9.5 12.7847 9.5 12.125C9.5 11.6104 9.64857 11.1486 9.94571 10.7396C10.2428 10.3306 10.6221 10.0469 11.0833 9.88854V3.41667C11.0833 2.98125 10.9282 2.60837 10.6178 2.29804C10.3075 1.98771 9.93489 1.83281 9.5 1.83333C9.06458 1.83333 8.69171 1.9885 8.38138 2.29883C8.07104 2.60917 7.91614 2.98178 7.91667 3.41667V11.3333C7.91667 12.2042 7.6066 12.9497 6.98646 13.5698C6.36632 14.1899 5.62083 14.5 4.75 14.5Z" fill="#53525C"/>
</svg>
