<svg width="16" height="15" viewBox="0 0 16 15" fill="none" xmlns="http://www.w3.org/2000/svg">
<path id="Vector" d="M13.2367 9.55887C13.5137 8.88595 13.6642 8.16554 13.6642 7.37387C13.6642 6.80387 13.5771 6.25762 13.4267 5.75095C12.9121 5.8697 12.3737 5.93304 11.8117 5.93304C10.6606 5.93427 9.52603 5.65874 8.50371 5.12967C7.48139 4.6006 6.60126 3.8335 5.9375 2.89304C5.22745 4.61109 3.88797 5.99305 2.19292 6.75637C2.16125 6.95429 2.16125 7.16804 2.16125 7.37387C2.16125 8.12968 2.31012 8.87809 2.59935 9.57637C2.88859 10.2747 3.31253 10.9091 3.84697 11.4436C4.92632 12.5229 6.39023 13.1293 7.91667 13.1293C8.74792 13.1293 9.5475 12.9472 10.2679 12.6226C10.7192 13.4855 10.925 13.913 10.9092 13.913C9.61083 14.3485 8.60542 14.5622 7.91667 14.5622C6.00083 14.5622 4.17208 13.8101 2.82625 12.4564C2.00766 11.6403 1.39917 10.6379 1.05292 9.53512H0V5.93304H0.862917C1.12436 4.66044 1.72543 3.48236 2.60236 2.5238C3.47928 1.56523 4.59935 0.861942 5.84371 0.488553C7.08807 0.115164 8.4103 0.0856053 9.6701 0.403012C10.9299 0.720419 12.0803 1.37295 12.9992 2.29137C13.9968 3.28511 14.6773 4.55245 14.9546 5.93304H15.8333V9.53512H15.7858L12.9675 12.1239L8.77167 11.6489V10.3268H12.5954L13.2367 9.55887ZM5.75542 7.19179C5.99292 7.19179 6.2225 7.28679 6.38875 7.46095C6.55583 7.6294 6.64958 7.85704 6.64958 8.09429C6.64958 8.33154 6.55583 8.55918 6.38875 8.72762C6.2225 8.89387 5.99292 8.98887 5.75542 8.98887C5.25667 8.98887 4.85292 8.59304 4.85292 8.09429C4.85292 7.59554 5.25667 7.19179 5.75542 7.19179ZM10.07 7.19179C10.5687 7.19179 10.9646 7.59554 10.9646 8.09429C10.9646 8.59304 10.5687 8.98887 10.07 8.98887C9.57125 8.98887 9.1675 8.59304 9.1675 8.09429C9.1675 7.85493 9.26258 7.62537 9.43184 7.45612C9.60109 7.28687 9.83064 7.19179 10.07 7.19179Z" fill="#53525C"/>
</svg>
